PathFileType	4	(X/Y/Z)	SUBJ32_4_walk_RCNL2025.trc
DataRate	CameraRate	NumFrames	NumMarkers	Units	OrigDataRate	OrigDataStartFrame	OrigNumFrames
100	100	10	25	mm	100	239	273
Frame#	Time	R_Shoulder			L_Shoulder			C7			J_Notch			R_Elbow			L_Elbow			R_Wrist			L_Wrist			R_Asis			L_Asis			Sacral			Thoracic			Sternum			R_Thigh_Lateral			R_Knee_Lateral			R_Shank_Lateral			R_Ankle_Lateral			R_Heel			R_Toe			L_Thigh_Lateral			L_Knee_Lateral			L_Shank_Lateral			L_Ankle_Lateral			L_Heel			L_Toe		
		X1	Y1	Z1	X2	Y2	Z2	X3	Y3	Z3	X4	Y4	Z4	X5	Y5	Z5	X6	Y6	Z6	X7	Y7	Z7	X8	Y8	Z8	X9	Y9	Z9	X10	Y10	Z10	X11	Y11	Z11	X12	Y12	Z12	X13	Y13	Z13	X14	Y14	Z14	X15	Y15	Z15	X16	Y16	Z16	X17	Y17	Z17	X18	Y18	Z18	X19	Y19	Z19	X20	Y20	Z20	X21	Y21	Z21	X22	Y22	Z22	X23	Y23	Z23	X24	Y24	Z24	X25	Y25	Z25
239	2.38000000	980.072327	1340.848877	300.695770	978.718262	1343.315552	-66.082718	942.994263	1414.072754	129.613525	1072.394409	1314.455811	118.366989	892.571777	1014.901550	406.743195	991.162964	1038.084961	-198.303543	968.450867	776.339508	433.751633	1172.768921	854.464355	-202.699867	1065.624023	880.370544	224.687485	1024.907593	875.640991	-28.098583	851.307434	926.466980	131.702225	850.882568	1185.412354	125.694443	1136.932983	1087.182251	101.729111	1070.384033	525.311829	299.630249	1110.433594	441.256653	251.774323	1150.806885	283.138184	315.511627	1235.756836	73.242554	203.345856	1191.718018	48.582684	146.915604	1365.594116	96.094368	173.450989	860.807312	550.716553	-102.284775	837.551025	460.123932	-51.065552	747.645203	250.677567	-65.579948	669.926575	84.295479	39.410683	621.144836	89.034286	89.567154	799.432922	42.410290	61.535313
240	2.39000000	991.565979	1339.459717	302.201752	990.041687	1342.723755	-64.573364	954.501221	1413.048218	131.350281	1084.017578	1313.614258	119.813141	904.260559	1013.134460	407.318024	1001.256226	1037.614990	-197.126892	979.780365	774.414612	433.932022	1181.474670	852.602295	-202.105171	1078.618530	879.912476	224.578979	1036.903076	874.679016	-28.256926	863.751343	925.365173	132.233185	862.754822	1184.261841	126.766014	1148.990356	1086.473633	102.573502	1085.612061	526.196228	299.767670	1123.193848	440.715790	251.613007	1161.646240	281.695465	314.516144	1240.744263	70.917900	201.881821	1195.565430	48.136539	146.083603	1370.863892	89.863617	169.984589	871.069641	550.530212	-102.897392	847.319397	459.917969	-52.073635	753.711121	252.106934	-66.859016	671.596069	87.366287	38.254948	623.026917	93.800346	88.128311	799.995300	42.536015	61.280602
241	2.40000000	1003.151245	1338.177490	303.799438	1001.400940	1342.309326	-63.007446	966.143250	1412.259277	133.210052	1095.738525	1313.017578	121.328819	916.133240	1011.441223	407.935760	1011.127075	1037.254883	-195.797073	991.264343	772.542297	434.116577	1189.582092	850.503387	-201.506699	1091.731079	879.814758	224.420380	1049.130005	873.851074	-28.328926	876.315002	924.548645	132.755035	874.750061	1183.354492	127.827309	1161.234619	1086.035522	103.472031	1100.352295	527.076111	299.839813	1135.649658	440.363556	251.601822	1172.358154	280.504852	313.706848	1245.154175	68.918274	200.764862	1198.757202	48.217888	145.603119	1375.627686	83.365211	166.840897	882.024902	550.304443	-103.458649	857.953735	459.657349	-53.120052	760.352417	253.724426	-68.153900	673.667114	90.809868	37.002045	625.443115	99.193802	86.543419	800.625244	42.603233	61.047890
242	2.41000000	1014.825134	1337.045044	305.465118	1012.796021	1342.118530	-61.410854	977.925720	1411.762573	135.177536	1107.544434	1312.716797	122.895691	928.211304	1009.860962	408.579559	1020.762634	1037.033936	-194.308105	1002.892883	770.753693	434.291412	1197.072998	848.213440	-200.900330	1104.863647	880.091248	224.232193	1061.536987	873.195496	-28.286467	888.920837	924.083618	133.253830	886.838440	1182.745850	128.857513	1173.649536	1085.904785	104.417137	1114.583862	527.972168	299.884521	1147.966675	440.329620	251.767136	1183.302490	279.790131	313.200989	1249.173218	67.373978	200.025269	1201.513550	48.784435	145.503632	1380.013306	76.975281	164.130142	893.769775	550.049011	-103.998047	869.585754	459.341583	-54.246914	767.671570	255.573334	-69.498703	676.278625	94.701530	35.587643	628.557678	105.311401	84.734962	801.318420	42.584667	60.836880
243	2.42000000	1026.585083	1336.109985	307.168060	1024.230957	1342.198120	-59.809269	989.844116	1411.604126	137.228439	1119.420898	1312.745361	124.492455	940.516541	1008.441895	409.229980	1030.150269	1036.986084	-192.654663	1014.656616	769.092010	434.442383	1203.926819	845.787170	-200.283333	1117.915649	880.736267	224.067780	1074.060059	872.741394	-28.103605	901.492981	923.996887	133.711258	898.981873	1182.467896	129.839371	1186.206055	1086.104492	105.402229	1128.432983	528.968750	299.975037	1160.319336	440.708221	252.122971	1194.797974	279.726410	313.079041	1252.829102	66.313171	199.624115	1203.914551	49.687302	145.744339	1383.973389	71.038559	161.885147	906.401794	549.769043	-104.564194	882.344421	458.971527	-55.514820	775.793152	257.705383	-70.947006	679.608887	99.132004	33.930805	632.559631	112.234367	82.627632	802.076660	42.469643	60.640171
244	2.43000000	1038.429199	1335.417969	308.872955	1035.713623	1342.586670	-58.224205	1001.878784	1411.803711	139.328537	1131.353638	1313.104980	126.095505	953.064392	1007.235474	409.867035	1039.279907	1037.145264	-190.835114	1026.548828	767.610077	434.558182	1210.121399	843.280853	-199.652092	1130.801147	881.716919	223.994888	1086.635010	872.507507	-27.764751	913.973694	924.261841	134.106354	911.138977	1182.522217	130.764130	1198.860474	1086.636719	106.419373	1142.091919	530.167847	300.187225	1172.794312	441.505707	252.655075	1206.954590	280.348328	313.325317	1256.052124	65.690880	199.463531	1205.959839	50.743782	146.218094	1387.390015	65.810287	160.060379	920.003357	549.462158	-105.221367	896.336670	458.547913	-56.995804	784.843384	260.175568	-72.559593	683.870972	104.204338	31.946205	637.644653	120.003288	80.170151	802.912598	42.270641	60.447441
245	2.44000000	1050.356689	1335.005127	310.543854	1047.249023	1343.305054	-56.670273	1013.992798	1412.345825	141.436600	1143.327148	1313.761230	127.679184	965.857849	1006.286316	410.473083	1048.145386	1037.538696	-188.855026	1038.567139	766.363617	434.633347	1215.636841	840.745422	-199.001030	1143.463745	882.976868	224.073837	1099.207397	872.502869	-27.268566	926.333374	924.806702	134.420959	923.270264	1182.882324	131.635345	1211.552979	1087.478271	107.455032	1155.675049	531.628052	300.565857	1185.316284	442.624207	253.311920	1219.506592	281.492462	313.817963	1258.778931	65.428604	199.423386	1207.640747	51.800510	146.793503	1390.190918	61.429096	158.556961	934.630066	549.119263	-106.041740	911.626953	458.071075	-58.760567	794.929321	263.032654	-74.389915	689.269836	110.002754	29.573532	643.996216	128.598602	77.349884	803.856628	42.026962	60.250366
246	2.45000000	1062.368042	1334.891113	312.149445	1058.830444	1344.349731	-55.156551	1026.134521	1413.182251	143.510727	1155.320312	1314.654175	129.216644	978.882996	1005.623230	411.035309	1056.743896	1038.178711	-186.729187	1050.716858	765.401642	434.669754	1220.463623	838.221741	-198.323509	1155.885010	884.447144	224.344849	1111.738403	872.728149	-26.627768	938.570435	925.538574	134.650757	935.342468	1183.500610	132.468674	1224.211060	1088.581787	108.487267	1169.078613	533.299133	301.098572	1197.639771	443.890717	254.014435	1231.810791	282.843658	314.388763	1261.014404	65.435516	199.396896	1208.979004	52.760769	147.355911	1392.394165	57.926369	157.265076	950.303589	548.730652	-107.093468	928.220825	457.540588	-60.862858	806.126221	266.303497	-76.471886	695.940613	116.546196	26.814974	651.777039	137.943985	74.196762	804.966248	41.808716	60.042282
247	2.46000000	1074.464600	1335.074219	313.667938	1070.435425	1345.690552	-53.689980	1038.246460	1414.243774	145.513855	1167.303955	1315.712646	130.681290	992.108521	1005.253540	411.547394	1065.074829	1039.057251	-184.481476	1063.012085	764.757019	434.675354	1224.609741	835.737671	-197.614349	1168.078613	886.057983	224.824478	1124.206787	873.176453	-25.865753	950.695801	926.368896	134.820618	947.330261	1184.316895	133.287231	1236.756958	1089.882080	109.487259	1181.961304	535.002747	301.716583	1209.418579	445.113525	254.680389	1243.083008	284.070923	314.899292	1262.817383	65.617966	199.309067	1210.025269	53.580158	147.821579	1394.083008	55.251869	156.108765	967.004883	548.290894	-108.425201	946.056213	456.955261	-63.322487	818.473755	269.971191	-78.810524	703.915833	123.770966	23.748785	661.112732	147.927841	70.778488	806.340271	41.723015	59.808151
248	2.47000000	1086.649048	1335.528564	315.089691	1082.026123	1347.273560	-52.277115	1050.274414	1415.456421	147.416565	1179.241943	1316.868164	132.047867	1005.490051	1005.163208	412.010895	1073.139771	1040.144531	-182.143814	1075.473389	764.439362	434.660690	1228.107483	833.308685	-196.872971	1180.076538	887.744568	225.504135	1136.601685	873.828918	-25.009035	962.713623	927.233948	134.987686	959.215637	1185.268921	134.116241	1249.116699	1091.305908	110.424927	1193.888428	536.500732	302.325317	1220.314941	446.132965	255.246811	1252.722290	284.944702	315.273224	1264.258301	65.889481	199.120621	1210.839966	54.249340	148.135757	1395.359985	53.303867	155.064621	984.666748	547.801270	-110.048225	965.004211	456.314636	-66.107780	831.982056	273.955444	-81.374939	713.137695	131.550232	20.509260	672.059021	158.414291	67.189720	808.136597	41.917801	59.507034
